<?xml version="1.0" encoding="UTF-8" standalone="no"?>
<!-- Author: Jade Ellis <jade@ellis.link> -->
<svg
   id="svg"
   version="1.1"
   style="display:block"
   viewBox="0 0 160 160"
   width="256"
   height="256"
   xmlns="http://www.w3.org/2000/svg"
   xmlns:svg="http://www.w3.org/2000/svg">
  <defs
     id="defs9" />
  <path
     d="m 102,24 3.03516,1.285156 c 16.89078,7.665982 28.21878,22.289921 33.33642,39.911377 4.01262,17.900912 0.65446,37.049267 -10.53564,51.635497 C 118.05058,128.38709 107.39578,134.41608 93,139 l -3,1 c -2.915345,0.0972 -5.83304,0.12978 -8.75,0.125 l -4.734375,0.008 C 69.549497,139.92793 64.317826,138.93328 58,136 l -3.25,-1.1875 C 36.254044,125.87279 25.268,110.15253 20.378906,90.503906 17.225236,69.663671 24.666408,50.852693 38.8125,35.75 55.422572,20.00906 80.831439,14.137724 102,24 Z"
     style="fill:#41c43a;fill-opacity:1;stroke-width:10;stroke-dasharray:none"
     id="path2" />
  <path
     d="m 41.121338,74.627686 c 26.856675,-0.06028 53.714274,0.165264 80.570862,0.09015 6.07906,0.05342 6.07906,0.05342 8.3078,2.282166 3.38459,37.626118 -23.91055,54.089708 -50.225001,54.413768 C 43.690504,131.85815 27.049896,102.96134 29,78 c 3.923989,-3.923989 6.890736,-3.417555 12.121338,-3.372314 z"
     style="fill:#41433f;stroke-width:10;stroke-dasharray:none"
     id="path4" />
  <path
     d="m 66,85 h 28 v 35 c -9.207464,3.17263 -18.874231,3.03618 -28,0 z"
     style="fill:#f8f9f9;stroke-width:10;stroke-dasharray:none"
     id="path5" />
  <path
     d="m 112.875,45.5625 c 5.3695,4.058015 7.90828,7.945209 8.5,14.75 C 121,64 121,64 119,66 c -5,0 -5,0 -7,-2 -0.73878,-3.887382 -0.98173,-7.495459 -4.25,-10.0625 C 104.29585,52.759949 102.4704,52.892426 99,54 c -4.063912,2.935047 -4.897804,6.223817 -6,11 -4.625,1.25 -4.625,1.25 -8,-1 -0.742207,-6.255745 0.352264,-9.912368 4,-15 7.041141,-6.610051 15.3421,-8.749369 23.875,-3.4375 z"
     style="fill:#414237;stroke-width:10;stroke-dasharray:none"
     id="path6" />
  <path
     d="M 64.496094,44.109375 C 69.554748,47.19939 72.772922,50.38389 75,56 c 0.64,7.36 0.64,7.36 -2,10 -1.65,0 -3.3,0 -5,0 C 66,63 66,63 65.1875,59.5 63.801991,55.416395 63.011582,54.458757 59,53 55.470695,53.072027 53.613579,53.55686 50.75,55.625 48.559682,58.597574 47.873551,61.438603 47,65 46,66 46,66 41,66 37.837981,62.83798 38.567352,60.326487 39,56 43.854573,45.835738 53.341123,39.15161 64.496094,44.109375 Z"
     style="fill:#414138;stroke-width:10;stroke-dasharray:none"
     id="path7" />
  <path
     d="m 103,85 h 18 c -0.28511,13.159247 -6.92235,24.35341 -18,31 z"
     style="fill:#f8f9f8;stroke-width:10;stroke-dasharray:none"
     id="path8" />
  <path
     d="m 39,85 h 18 v 31 C 40.600431,105.06695 39.544533,94.665464 39,85 Z"
     style="fill:#f8f9f8;stroke-width:10;stroke-dasharray:none"
     id="path9" />
  <circle
     style="fill:none;stroke:#40413f;stroke-width:10;stroke-dasharray:none;stroke-opacity:1"
     id="path10"
     cx="80"
     cy="80"
     r="64" />
</svg>
